<?xml version="1.0" encoding="UTF-8" standalone="no"?>
<!-- Created with Inkscape (http://www.inkscape.org/) -->

<svg
   width="25mm"
   height="25mm"
   viewBox="0 0 25 25"
   version="1.1"
   id="svg5"
   inkscape:version="1.2 (dc2aedaf03, 2022-05-15)"
   sodipodi:docname="dino.svg"
   xmlns:inkscape="http://www.inkscape.org/namespaces/inkscape"
   xmlns:sodipodi="http://sodipodi.sourceforge.net/DTD/sodipodi-0.dtd"
   xmlns="http://www.w3.org/2000/svg"
   xmlns:svg="http://www.w3.org/2000/svg">
  <sodipodi:namedview
     id="namedview7"
     pagecolor="#ffffff"
     bordercolor="#000000"
     borderopacity="0.25"
     inkscape:showpageshadow="2"
     inkscape:pageopacity="0.0"
     inkscape:pagecheckerboard="0"
     inkscape:deskcolor="#d1d1d1"
     inkscape:document-units="mm"
     showgrid="false"
     inkscape:zoom="4.8978814"
     inkscape:cx="25.419154"
     inkscape:cy="57.984254"
     inkscape:window-width="1920"
     inkscape:window-height="1017"
     inkscape:window-x="-8"
     inkscape:window-y="-8"
     inkscape:window-maximized="1"
     inkscape:current-layer="layer1" />
  <defs
     id="defs2">
    <rect
       x="92.537468"
       y="512.30884"
       width="87.172974"
       height="81.808472"
       id="rect63" />
  </defs>
  <g
     inkscape:label="Слой 1"
     inkscape:groupmode="layer"
     id="layer1"
     transform="translate(-61.913799,-113.79355)">
    <rect
       style="fill:#050580;stroke-width:0.264583;fill-opacity:0.69098711"
       id="rect394"
       width="25"
       height="25"
       x="61.913799"
       y="113.79355"
       ry="5"
       rx="5" />
    <g
       aria-label="░▄▄▄▄░ ▀▀▄██► ▀▀███► ░▀███►░█► ▒▄████▀▀ "
       transform="matrix(0.26458333,0,0,0.26458333,39.140298,-19.222729)"
       id="text61"
       style="white-space:pre;shape-inside:url(#rect63);fill:#f2f2f2">
      <path
         d="m 93.134766,512.33468 h 0.732421 v 0.73242 h -0.732421 z m 2.917968,0 h 0.732422 v 0.73242 h -0.732422 z m 2.923828,0 h 0.732422 v 0.73242 h -0.732422 z m -4.382812,1.45899 h 0.732422 v 0.73242 H 94.59375 Z m 2.923828,0 h 0.726563 v 0.73242 h -0.726563 z m 2.917972,0 h 0.73242 v 0.73242 h -0.73242 z m -1.458988,1.45898 h 0.732422 v 0.73242 h -0.732422 z m -2.923828,0 h 0.732422 v 0.73242 h -0.732422 z m -2.917968,0 h 0.732421 v 0.73242 h -0.732421 z m 7.300784,1.46485 h 0.73242 v 0.72656 h -0.73242 z m -2.917972,0 h 0.726563 v 0.72656 h -0.726563 z m -2.923828,0 h 0.732422 v 0.72656 H 94.59375 Z m -1.458984,1.45898 h 0.732421 v 0.73242 h -0.732421 z m 2.917968,0 h 0.732422 v 0.73242 h -0.732422 z m 2.923828,0 h 0.732422 v 0.73242 h -0.732422 z m 1.458988,1.45898 h 0.73242 v 0.73243 h -0.73242 z m -2.917972,0 h 0.726563 v 0.73243 h -0.726563 z m -2.923828,0 h 0.732422 v 0.73243 H 94.59375 Z m -1.458984,1.45899 h 0.732421 v 0.73242 h -0.732421 z m 2.917968,0 h 0.732422 v 0.73242 h -0.732422 z m 2.923828,0 h 0.732422 v 0.73242 h -0.732422 z m -4.382812,1.46484 h 0.732422 v 0.72656 H 94.59375 Z m 2.923828,0 h 0.726563 v 0.72656 h -0.726563 z m 2.917972,0 h 0.73242 v 0.72656 h -0.73242 z m -1.458988,1.45899 h 0.732422 v 0.73242 h -0.732422 z m -2.923828,0 h 0.732422 v 0.73242 h -0.732422 z m -2.917968,0 h 0.732421 v 0.73242 h -0.732421 z m 1.458984,1.45898 h 0.732422 v 0.73242 H 94.59375 Z m 2.923828,0 h 0.726563 v 0.73242 h -0.726563 z m 2.917972,0 h 0.73242 v 0.73242 h -0.73242 z"
         id="path275"
         style="fill:#f2f2f2" />
      <path
         d="m 109.66992,526.89523 h -8.76562 v -7.27734 h 8.76562 z"
         id="path277"
         style="fill:#f2f2f2" />
      <path
         d="m 118.17188,526.89523 h -8.76563 v -7.27734 h 8.76563 z"
         id="path279"
         style="fill:#f2f2f2" />
      <path
         d="m 126.67383,526.89523 h -8.76563 v -7.27734 h 8.76563 z"
         id="path281"
         style="fill:#f2f2f2" />
      <path
         d="m 135.17578,526.89523 h -8.76562 v -7.27734 h 8.76562 z"
         id="path283"
         style="fill:#f2f2f2" />
      <path
         d="m 135.64453,512.33468 h 0.73242 v 0.73242 h -0.73242 z m 2.91797,0 h 0.73242 v 0.73242 h -0.73242 z m 2.92383,0 h 0.73242 v 0.73242 h -0.73242 z m -4.38281,1.45899 h 0.73242 v 0.73242 h -0.73242 z m 2.92382,0 h 0.72657 v 0.73242 h -0.72657 z m 2.91797,0 h 0.73242 v 0.73242 h -0.73242 z m -1.45898,1.45898 h 0.73242 v 0.73242 h -0.73242 z m -2.92383,0 h 0.73242 v 0.73242 h -0.73242 z m -2.91797,0 h 0.73242 v 0.73242 h -0.73242 z m 7.30078,1.46485 h 0.73242 v 0.72656 h -0.73242 z m -2.91797,0 h 0.72657 v 0.72656 h -0.72657 z m -2.92382,0 h 0.73242 v 0.72656 h -0.73242 z m -1.45899,1.45898 h 0.73242 v 0.73242 h -0.73242 z m 2.91797,0 h 0.73242 v 0.73242 h -0.73242 z m 2.92383,0 h 0.73242 v 0.73242 h -0.73242 z m 1.45898,1.45898 h 0.73242 v 0.73243 h -0.73242 z m -2.91797,0 h 0.72657 v 0.73243 h -0.72657 z m -2.92382,0 h 0.73242 v 0.73243 h -0.73242 z m -1.45899,1.45899 h 0.73242 v 0.73242 h -0.73242 z m 2.91797,0 h 0.73242 v 0.73242 h -0.73242 z m 2.92383,0 h 0.73242 v 0.73242 h -0.73242 z m -4.38281,1.46484 h 0.73242 v 0.72656 h -0.73242 z m 2.92382,0 h 0.72657 v 0.72656 h -0.72657 z m 2.91797,0 h 0.73242 v 0.72656 h -0.73242 z m -1.45898,1.45899 h 0.73242 v 0.73242 h -0.73242 z m -2.92383,0 h 0.73242 v 0.73242 h -0.73242 z m -2.91797,0 h 0.73242 v 0.73242 h -0.73242 z m 1.45899,1.45898 h 0.73242 v 0.73242 h -0.73242 z m 2.92382,0 h 0.72657 v 0.73242 h -0.72657 z m 2.91797,0 h 0.73242 v 0.73242 h -0.73242 z"
         id="path285"
         style="fill:#f2f2f2" />
      <path
         d="m 101.16797,534.7568 h -8.765626 v -7.2832 h 8.765626 z"
         id="path287"
         style="fill:#f2f2f2" />
      <path
         d="m 109.66992,534.7568 h -8.76562 v -7.2832 h 8.76562 z"
         id="path289"
         style="fill:#f2f2f2" />
      <path
         d="m 118.17188,542.03415 h -8.76563 v -7.27735 h 8.76563 z"
         id="path291"
         style="fill:#f2f2f2" />
      <path
         d="M 117.9082,542.03415 V 527.4736 h 8.76563 v 14.56055 z"
         id="path293"
         style="fill:#f2f2f2" />
      <path
         d="M 126.41016,542.03415 V 527.4736 h 8.76562 v 14.56055 z"
         id="path295"
         style="fill:#f2f2f2" />
      <path
         d="m 136.73437,530.09274 8.50196,4.24219 -8.50196,4.24218 z"
         id="path297"
         style="fill:#f2f2f2" />
      <path
         d="m 101.16797,549.89572 h -8.765626 v -7.28321 h 8.765626 z"
         id="path299"
         style="fill:#f2f2f2" />
      <path
         d="m 109.66992,549.89572 h -8.76562 v -7.28321 h 8.76562 z"
         id="path301"
         style="fill:#f2f2f2" />
      <path
         d="m 109.40625,557.17306 v -14.56055 h 8.76563 v 14.56055 z"
         id="path303"
         style="fill:#f2f2f2" />
      <path
         d="m 117.9082,557.17306 v -14.56055 h 8.76563 v 14.56055 z"
         id="path305"
         style="fill:#f2f2f2" />
      <path
         d="m 126.41016,557.17306 v -14.56055 h 8.76562 v 14.56055 z"
         id="path307"
         style="fill:#f2f2f2" />
      <path
         d="m 136.73437,545.23166 8.50196,4.24218 -8.50196,4.24219 z"
         id="path309"
         style="fill:#f2f2f2" />
      <path
         d="m 93.134766,557.75143 h 0.732421 v 0.73242 h -0.732421 z m 2.917968,0 h 0.732422 v 0.73242 h -0.732422 z m 2.923828,0 h 0.732422 v 0.73242 h -0.732422 z m -4.382812,1.45898 h 0.732422 v 0.73243 H 94.59375 Z m 2.923828,0 h 0.726563 v 0.73243 h -0.726563 z m 2.917972,0 h 0.73242 v 0.73243 h -0.73242 z m -1.458988,1.45899 h 0.732422 v 0.73242 h -0.732422 z m -2.923828,0 h 0.732422 v 0.73242 h -0.732422 z m -2.917968,0 h 0.732421 v 0.73242 h -0.732421 z m 7.300784,1.46484 h 0.73242 v 0.72657 h -0.73242 z m -2.917972,0 h 0.726563 v 0.72657 h -0.726563 z m -2.923828,0 h 0.732422 v 0.72657 H 94.59375 Z m -1.458984,1.45899 h 0.732421 v 0.73242 h -0.732421 z m 2.917968,0 h 0.732422 v 0.73242 h -0.732422 z m 2.923828,0 h 0.732422 v 0.73242 h -0.732422 z m 1.458988,1.45898 h 0.73242 v 0.73242 h -0.73242 z m -2.917972,0 h 0.726563 v 0.73242 h -0.726563 z m -2.923828,0 h 0.732422 v 0.73242 H 94.59375 Z m -1.458984,1.45899 h 0.732421 v 0.73242 h -0.732421 z m 2.917968,0 h 0.732422 v 0.73242 h -0.732422 z m 2.923828,0 h 0.732422 v 0.73242 h -0.732422 z m -4.382812,1.46484 h 0.732422 v 0.72656 H 94.59375 Z m 2.923828,0 h 0.726563 v 0.72656 h -0.726563 z m 2.917972,0 h 0.73242 v 0.72656 h -0.73242 z m -1.458988,1.45898 h 0.732422 v 0.73243 h -0.732422 z m -2.923828,0 h 0.732422 v 0.73243 h -0.732422 z m -2.917968,0 h 0.732421 v 0.73243 h -0.732421 z m 1.458984,1.45899 h 0.732422 v 0.73242 H 94.59375 Z m 2.923828,0 h 0.726563 v 0.73242 h -0.726563 z m 2.917972,0 h 0.73242 v 0.73242 h -0.73242 z"
         id="path311"
         style="fill:#f2f2f2" />
      <path
         d="m 109.66992,565.03463 h -8.76562 v -7.2832 h 8.76562 z"
         id="path313"
         style="fill:#f2f2f2" />
      <path
         d="m 109.40625,572.31198 v -14.56055 h 8.76563 v 14.56055 z"
         id="path315"
         style="fill:#f2f2f2" />
      <path
         d="m 117.9082,572.31198 v -14.56055 h 8.76563 v 14.56055 z"
         id="path317"
         style="fill:#f2f2f2" />
      <path
         d="m 126.41016,572.31198 v -14.56055 h 8.76562 v 14.56055 z"
         id="path319"
         style="fill:#f2f2f2" />
      <path
         d="m 136.73437,560.37057 8.50196,4.24219 -8.50196,4.24219 z"
         id="path321"
         style="fill:#f2f2f2" />
      <path
         d="m 147.52148,557.75143 h 0.73243 v 0.73242 h -0.73243 z m 2.91797,0 h 0.73242 v 0.73242 h -0.73242 z m 2.92383,0 h 0.73242 v 0.73242 h -0.73242 z m -4.38281,1.45898 h 0.73242 v 0.73243 h -0.73242 z m 2.92383,0 h 0.72656 v 0.73243 h -0.72656 z m 2.91797,0 h 0.73242 v 0.73243 h -0.73242 z m -1.45899,1.45899 h 0.73242 v 0.73242 h -0.73242 z m -2.92383,0 h 0.73242 v 0.73242 h -0.73242 z m -2.91797,0 h 0.73243 v 0.73242 h -0.73243 z m 7.30079,1.46484 h 0.73242 v 0.72657 h -0.73242 z m -2.91797,0 h 0.72656 v 0.72657 h -0.72656 z m -2.92383,0 h 0.73242 v 0.72657 h -0.73242 z m -1.45899,1.45899 h 0.73243 v 0.73242 h -0.73243 z m 2.91797,0 h 0.73242 v 0.73242 h -0.73242 z m 2.92383,0 h 0.73242 v 0.73242 h -0.73242 z m 1.45899,1.45898 h 0.73242 v 0.73242 h -0.73242 z m -2.91797,0 h 0.72656 v 0.73242 h -0.72656 z m -2.92383,0 h 0.73242 v 0.73242 h -0.73242 z m -1.45899,1.45899 h 0.73243 v 0.73242 h -0.73243 z m 2.91797,0 h 0.73242 v 0.73242 h -0.73242 z m 2.92383,0 h 0.73242 v 0.73242 h -0.73242 z m -4.38281,1.46484 h 0.73242 v 0.72656 h -0.73242 z m 2.92383,0 h 0.72656 v 0.72656 h -0.72656 z m 2.91797,0 h 0.73242 v 0.72656 h -0.73242 z m -1.45899,1.45898 h 0.73242 v 0.73243 h -0.73242 z m -2.92383,0 h 0.73242 v 0.73243 h -0.73242 z m -2.91797,0 h 0.73243 v 0.73243 h -0.73243 z m 1.45899,1.45899 h 0.73242 v 0.73242 h -0.73242 z m 2.92383,0 h 0.72656 v 0.73242 h -0.72656 z m 2.91797,0 h 0.73242 v 0.73242 h -0.73242 z"
         id="path323"
         style="fill:#f2f2f2" />
      <path
         d="m 155.29102,572.31198 v -14.56055 h 8.76562 v 14.56055 z"
         id="path325"
         style="fill:#f2f2f2" />
      <path
         d="m 165.61523,560.37057 8.50196,4.24219 -8.50196,4.24219 z"
         id="path327"
         style="fill:#f2f2f2" />
      <path
         d="m 93.140625,572.89035 h 0.726562 v 0.73242 h -0.726562 z m 1.458984,0 h 0.726563 v 0.73242 h -0.726563 z m 1.458985,0 h 0.732422 v 0.73242 h -0.732422 z m 1.458984,0 H 98.25 v 0.73242 h -0.732422 z m 1.464844,0 h 0.726562 v 0.73242 h -0.726562 z m 1.458988,0 h 0.72656 v 0.73242 h -0.72656 z m -8.033207,1.45898 h 0.732422 v 0.73242 h -0.732422 z m 1.458984,0 h 0.732422 v 0.73242 h -0.732422 z m 1.458985,0 h 0.732422 v 0.73242 h -0.732422 z m 1.464844,0 h 0.726562 v 0.73242 h -0.726562 z m 1.458984,0 h 0.732422 v 0.73242 H 98.25 Z m 1.458984,0 h 0.732426 v 0.73242 h -0.732426 z m -6.568359,1.45899 h 0.726562 v 0.73242 h -0.726562 z m 1.458984,0 h 0.726563 v 0.73242 h -0.726563 z m 1.458985,0 h 0.732422 v 0.73242 h -0.732422 z m 1.458984,0 H 98.25 v 0.73242 h -0.732422 z m 1.464844,0 h 0.726562 v 0.73242 h -0.726562 z m 1.458988,0 h 0.72656 v 0.73242 h -0.72656 z m -8.033207,1.46484 h 0.732422 v 0.72656 h -0.732422 z m 1.458984,0 h 0.732422 v 0.72656 h -0.732422 z m 1.458985,0 h 0.732422 v 0.72656 h -0.732422 z m 1.464844,0 h 0.726562 v 0.72656 h -0.726562 z m 1.458984,0 h 0.732422 v 0.72656 H 98.25 Z m 1.458984,0 h 0.732426 v 0.72656 h -0.732426 z m -6.568359,1.45898 h 0.726562 v 0.73243 h -0.726562 z m 1.458984,0 h 0.726563 v 0.73243 h -0.726563 z m 1.458985,0 h 0.732422 v 0.73243 h -0.732422 z m 1.458984,0 H 98.25 v 0.73243 h -0.732422 z m 1.464844,0 h 0.726562 v 0.73243 h -0.726562 z m 1.458988,0 h 0.72656 v 0.73243 h -0.72656 z m -8.033207,1.45899 h 0.732422 v 0.73242 h -0.732422 z m 2.917969,0 h 0.732422 v 0.73242 h -0.732422 z m 1.464844,0 h 0.726562 v 0.73242 h -0.726562 z m 1.458984,0 h 0.732422 v 0.73242 H 98.25 Z m 1.458984,0 h 0.732426 v 0.73242 h -0.732426 z m -5.841797,0 h 0.732422 v 0.73242 h -0.732422 z m 6.574223,1.45898 h 0.72656 v 0.73242 h -0.72656 z m -1.458988,0 h 0.726562 v 0.73242 h -0.726562 z m -1.464844,0 H 98.25 v 0.73242 h -0.732422 z m -1.458984,0 h 0.732422 v 0.73242 h -0.732422 z m -1.458985,0 h 0.726563 v 0.73242 h -0.726563 z m -1.458984,0 h 0.726562 v 0.73242 h -0.726562 z m -0.732422,1.46485 h 0.732422 v 0.72656 h -0.732422 z m 1.458984,0 h 0.732422 v 0.72656 h -0.732422 z m 1.458985,0 h 0.732422 v 0.72656 h -0.732422 z m 1.464844,0 h 0.726562 v 0.72656 h -0.726562 z m 1.458984,0 h 0.732422 v 0.72656 H 98.25 Z m 1.458984,0 h 0.732426 v 0.72656 h -0.732426 z m 0.732426,1.45898 h 0.72656 v 0.73242 h -0.72656 z m -1.458988,0 h 0.726562 v 0.73242 h -0.726562 z m -1.464844,0 H 98.25 v 0.73242 h -0.732422 z m -1.458984,0 h 0.732422 v 0.73242 h -0.732422 z m -1.458985,0 h 0.726563 v 0.73242 h -0.726563 z m -1.458984,0 h 0.726562 v 0.73242 h -0.726562 z m -0.732422,1.45898 h 0.732422 v 0.73243 h -0.732422 z m 1.458984,0 h 0.732422 v 0.73243 h -0.732422 z m 1.458985,0 h 0.732422 v 0.73243 h -0.732422 z m 1.464844,0 h 0.726562 v 0.73243 h -0.726562 z m 1.458984,0 h 0.732422 v 0.73243 H 98.25 Z m 1.458984,0 h 0.732426 v 0.73243 h -0.732426 z"
         id="path329"
         style="fill:#f2f2f2" />
      <path
         d="m 109.66992,587.45089 h -8.76562 v -7.27734 h 8.76562 z"
         id="path331"
         style="fill:#f2f2f2" />
      <path
         d="m 109.40625,587.45089 v -14.56054 h 8.76563 v 14.56054 z"
         id="path333"
         style="fill:#f2f2f2" />
      <path
         d="m 117.9082,587.45089 v -14.56054 h 8.76563 v 14.56054 z"
         id="path335"
         style="fill:#f2f2f2" />
      <path
         d="m 126.41016,587.45089 v -14.56054 h 8.76562 v 14.56054 z"
         id="path337"
         style="fill:#f2f2f2" />
      <path
         d="m 134.91211,587.45089 v -14.56054 h 8.76562 v 14.56054 z"
         id="path339"
         style="fill:#f2f2f2" />
      <path
         d="m 152.17969,580.17355 h -8.76563 v -7.2832 h 8.76563 z"
         id="path341"
         style="fill:#f2f2f2" />
      <path
         d="m 160.68164,580.17355 h -8.76562 v -7.2832 h 8.76562 z"
         id="path343"
         style="fill:#f2f2f2" />
    </g>
  </g>
</svg>
